<svg width="126" height="126" viewBox="0 0 126 126" fill="none" xmlns="http://www.w3.org/2000/svg">
<rect width="126" height="126" rx="25" fill="#264653"/>
<path d="M76.7037 99H55.3763C39.9926 99 33 90.4876 33 78.02V53.8587C33 47.4959 34.8356 42.9387 38.5067 39.8433L49.8696 30.4711C53.4533 27.4617 59.0474 26 66.6519 26H87.9793C90.7763 26 92 27.2038 92 29.9552V40.3592C92 41.9069 91.563 42.8528 90.7763 43.5406L79.4133 52.8269C78.8889 53.3428 77.9274 53.6867 76.7037 53.6867H65.9526V68.2179C65.9526 70.6254 67.5259 71.4853 70.4104 71.4853H87.9793C90.7763 71.4853 92 72.689 92 75.4405V85.6726C92 87.2203 91.563 88.1661 90.7763 88.854L79.4133 98.1402C78.8889 98.6561 77.9274 99 76.7037 99ZM87.9793 88.768C90.1644 88.768 91.1259 87.8221 91.1259 85.6726V75.4405C91.1259 73.2909 90.1644 72.3451 87.9793 72.3451H70.4104C66.7393 72.3451 65.0785 71.0554 65.0785 68.2179V47.7538C65.0785 44.8304 66.7393 43.4547 70.4104 43.4547H87.9793C90.1644 43.4547 91.1259 42.5088 91.1259 40.3592V29.9552C91.1259 27.8057 90.1644 26.8598 87.9793 26.8598H66.6519C51.9674 26.8598 45.1496 32.4488 45.1496 44.4865V71.2273C45.1496 83.179 51.9674 88.768 66.6519 88.768H87.9793Z" fill="white"/>
</svg>
